<?xml version="1.0" encoding="UTF-8"?><svg xmlns="http://www.w3.org/2000/svg" xmlns:xlink="http://www.w3.org/1999/xlink" contentScriptType="text/ecmascript" width="375pt" zoomAndPan="magnify" contentStyleType="text/css" viewBox="0 0 375 374.999991" height="374.999991pt" preserveAspectRatio="xMidYMid meet" version="1.2"><defs><g/></defs><g xml:id="surface1" id="surface1"><g clip-rule="nonzero"><path style=" stroke:none;fill-rule:nonzero;fill:rgb(6.669617%,21.179199%,100%);fill-opacity:1;" d="M 51.921875 154.679688 L 122.421875 154.679688 L 122.421875 225.179688 L 51.921875 225.179688 Z M 51.921875 154.679688 "/></g><g style="fill:rgb(100%,100%,100%);fill-opacity:1;"><g transform="translate(59.26722, 221.020394)"><path style="stroke:none;" d="M 13.109375 -61.6875 L 54.015625 -61.6875 L 52.46875 -54.3125 L 32.640625 -54.3125 L 28.5625 -35.5625 L 45.171875 -35.5625 L 43.625 -28.265625 L 27.015625 -28.265625 L 22.546875 -7.484375 L 42.359375 -7.484375 L 40.90625 0 L 0 0 Z M 13.109375 -61.6875 "/></g></g><g style="fill:rgb(13.328552%,13.328552%,13.328552%);fill-opacity:1;"><g transform="translate(107.908159, 220.438754)"><path style="stroke:none;" d="M 19.015625 -25.96875 C 20.003906 -26.90625 21.113281 -27.78125 22.34375 -28.59375 C 23.4375 -29.25 24.710938 -29.859375 26.171875 -30.421875 C 27.640625 -30.992188 29.273438 -31.28125 31.078125 -31.28125 C 33.535156 -31.28125 35.566406 -30.65625 37.171875 -29.40625 C 38.773438 -28.15625 39.578125 -26.441406 39.578125 -24.265625 C 39.578125 -23.648438 39.503906 -22.90625 39.359375 -22.03125 C 39.222656 -21.15625 39.0625 -20.242188 38.875 -19.296875 C 38.6875 -18.347656 38.484375 -17.390625 38.265625 -16.421875 C 38.054688 -15.453125 37.878906 -14.585938 37.734375 -13.828125 L 34.765625 0 L 20.359375 0 L 24.265625 -18.515625 C 24.359375 -19.128906 24.472656 -19.753906 24.609375 -20.390625 C 24.753906 -21.035156 24.828125 -21.613281 24.828125 -22.125 C 24.828125 -22.84375 24.648438 -23.425781 24.296875 -23.875 C 23.941406 -24.320312 23.410156 -24.546875 22.703125 -24.546875 C 21.847656 -24.546875 21.03125 -24.238281 20.25 -23.625 C 19.46875 -23.007812 18.863281 -22.488281 18.4375 -22.0625 L 13.765625 0 L -0.703125 0 L 5.75 -30.5 L 17.3125 -30.5 L 18.578125 -25.96875 Z M 19.015625 -25.96875 "/></g></g><g style="fill:rgb(13.328552%,13.328552%,13.328552%);fill-opacity:1;"><g transform="translate(149.475203, 220.438754)"><path style="stroke:none;" d="M 28.9375 -30.5 L 40.4375 -30.5 L 34.625 -2.90625 C 34.195312 -0.78125 33.484375 1.175781 32.484375 2.96875 C 31.492188 4.769531 30.109375 6.332031 28.328125 7.65625 C 26.554688 8.976562 24.332031 10.019531 21.65625 10.78125 C 18.988281 11.539062 15.742188 11.921875 11.921875 11.921875 C 11.210938 11.921875 10.359375 11.90625 9.359375 11.875 C 8.367188 11.851562 7.351562 11.832031 6.3125 11.8125 C 5.269531 11.789062 4.273438 11.753906 3.328125 11.703125 C 2.390625 11.660156 1.632812 11.613281 1.0625 11.5625 L 2.40625 6.453125 C 3.925781 6.691406 5.476562 6.820312 7.0625 6.84375 C 8.644531 6.863281 10.003906 6.875 11.140625 6.875 C 12.554688 6.875 13.75 6.742188 14.71875 6.484375 C 15.6875 6.222656 16.488281 5.804688 17.125 5.234375 C 17.769531 4.671875 18.289062 3.914062 18.6875 2.96875 C 19.09375 2.03125 19.414062 0.875 19.65625 -0.5 L 20.5 -5.109375 L 20 -5.109375 C 19.71875 -4.679688 19.304688 -4.171875 18.765625 -3.578125 C 18.222656 -2.992188 17.523438 -2.425781 16.671875 -1.875 C 15.816406 -1.332031 14.8125 -0.882812 13.65625 -0.53125 C 12.5 -0.175781 11.1875 0 9.71875 0 C 8.0625 0 6.65625 -0.242188 5.5 -0.734375 C 4.34375 -1.234375 3.40625 -1.921875 2.6875 -2.796875 C 1.976562 -3.671875 1.457031 -4.710938 1.125 -5.921875 C 0.800781 -7.128906 0.640625 -8.441406 0.640625 -9.859375 C 0.640625 -10.472656 0.6875 -11.414062 0.78125 -12.6875 C 0.875 -13.96875 1.097656 -15.410156 1.453125 -17.015625 C 1.804688 -18.628906 2.328125 -20.273438 3.015625 -21.953125 C 3.703125 -23.628906 4.625 -25.15625 5.78125 -26.53125 C 6.9375 -27.90625 8.378906 -29.039062 10.109375 -29.9375 C 11.835938 -30.832031 13.929688 -31.28125 16.390625 -31.28125 C 17.140625 -31.28125 17.960938 -31.207031 18.859375 -31.0625 C 19.765625 -30.925781 20.640625 -30.664062 21.484375 -30.28125 C 22.335938 -29.90625 23.09375 -29.363281 23.75 -28.65625 C 24.414062 -27.945312 24.941406 -27.023438 25.328125 -25.890625 L 25.75 -25.890625 Z M 21 -24.328125 C 19.863281 -24.328125 18.914062 -23.722656 18.15625 -22.515625 C 17.40625 -21.316406 16.789062 -19.910156 16.3125 -18.296875 C 15.84375 -16.691406 15.5 -15.097656 15.28125 -13.515625 C 15.070312 -11.929688 14.96875 -10.757812 14.96875 -10 C 14.96875 -9.050781 15.117188 -8.257812 15.421875 -7.625 C 15.734375 -6.988281 16.289062 -6.671875 17.09375 -6.671875 C 17.570312 -6.671875 18.035156 -6.785156 18.484375 -7.015625 C 18.929688 -7.253906 19.351562 -7.523438 19.75 -7.828125 C 20.15625 -8.140625 20.507812 -8.460938 20.8125 -8.796875 C 21.125 -9.128906 21.351562 -9.390625 21.5 -9.578125 L 24.125 -21.984375 C 23.738281 -22.503906 23.296875 -23.023438 22.796875 -23.546875 C 22.304688 -24.066406 21.707031 -24.328125 21 -24.328125 Z M 21 -24.328125 "/></g></g><g style="fill:rgb(13.328552%,13.328552%,13.328552%);fill-opacity:1;"><g transform="translate(190.474781, 220.438754)"><path style="stroke:none;" d="M 13.6875 0 L -0.703125 0 L 5.75 -30.5 L 20.28125 -30.5 Z M 22.125 -39.796875 C 22.125 -38.710938 21.898438 -37.765625 21.453125 -36.953125 C 21.003906 -36.148438 20.410156 -35.460938 19.671875 -34.890625 C 18.941406 -34.328125 18.101562 -33.90625 17.15625 -33.625 C 16.21875 -33.34375 15.253906 -33.203125 14.265625 -33.203125 C 12.367188 -33.203125 10.78125 -33.648438 9.5 -34.546875 C 8.226562 -35.441406 7.59375 -36.859375 7.59375 -38.796875 C 7.59375 -39.835938 7.800781 -40.769531 8.21875 -41.59375 C 8.644531 -42.425781 9.222656 -43.113281 9.953125 -43.65625 C 10.691406 -44.207031 11.546875 -44.625 12.515625 -44.90625 C 13.484375 -45.1875 14.488281 -45.328125 15.53125 -45.328125 C 17.375 -45.328125 18.929688 -44.878906 20.203125 -43.984375 C 21.484375 -43.085938 22.125 -41.691406 22.125 -39.796875 Z M 22.125 -39.796875 "/></g></g><g style="fill:rgb(13.328552%,13.328552%,13.328552%);fill-opacity:1;"><g transform="translate(211.258303, 220.438754)"><path style="stroke:none;" d="M 19.015625 -25.96875 C 20.003906 -26.90625 21.113281 -27.78125 22.34375 -28.59375 C 23.4375 -29.25 24.710938 -29.859375 26.171875 -30.421875 C 27.640625 -30.992188 29.273438 -31.28125 31.078125 -31.28125 C 33.535156 -31.28125 35.566406 -30.65625 37.171875 -29.40625 C 38.773438 -28.15625 39.578125 -26.441406 39.578125 -24.265625 C 39.578125 -23.648438 39.503906 -22.90625 39.359375 -22.03125 C 39.222656 -21.15625 39.0625 -20.242188 38.875 -19.296875 C 38.6875 -18.347656 38.484375 -17.390625 38.265625 -16.421875 C 38.054688 -15.453125 37.878906 -14.585938 37.734375 -13.828125 L 34.765625 0 L 20.359375 0 L 24.265625 -18.515625 C 24.359375 -19.128906 24.472656 -19.753906 24.609375 -20.390625 C 24.753906 -21.035156 24.828125 -21.613281 24.828125 -22.125 C 24.828125 -22.84375 24.648438 -23.425781 24.296875 -23.875 C 23.941406 -24.320312 23.410156 -24.546875 22.703125 -24.546875 C 21.847656 -24.546875 21.03125 -24.238281 20.25 -23.625 C 19.46875 -23.007812 18.863281 -22.488281 18.4375 -22.0625 L 13.765625 0 L -0.703125 0 L 5.75 -30.5 L 17.3125 -30.5 L 18.578125 -25.96875 Z M 19.015625 -25.96875 "/></g></g><g style="fill:rgb(13.328552%,13.328552%,13.328552%);fill-opacity:1;"><g transform="translate(252.825347, 220.438754)"><path style="stroke:none;" d="M 15.46875 -14.265625 C 15.28125 -13.222656 15.148438 -12.226562 15.078125 -11.28125 C 15.003906 -10.332031 14.96875 -9.476562 14.96875 -8.71875 C 14.96875 -8.300781 14.988281 -7.832031 15.03125 -7.3125 C 15.082031 -6.789062 15.191406 -6.300781 15.359375 -5.84375 C 15.523438 -5.394531 15.757812 -5.015625 16.0625 -4.703125 C 16.375 -4.398438 16.8125 -4.25 17.375 -4.25 C 17.800781 -4.25 18.285156 -4.390625 18.828125 -4.671875 C 19.378906 -4.960938 19.925781 -5.367188 20.46875 -5.890625 C 21.007812 -6.410156 21.523438 -7.046875 22.015625 -7.796875 C 22.515625 -8.554688 22.910156 -9.410156 23.203125 -10.359375 L 34.828125 -10.359375 L 32.984375 -2.765625 C 32.035156 -2.148438 30.945312 -1.628906 29.71875 -1.203125 C 28.488281 -0.773438 27.1875 -0.429688 25.8125 -0.171875 C 24.445312 0.0859375 23.050781 0.273438 21.625 0.390625 C 20.207031 0.503906 18.863281 0.5625 17.59375 0.5625 C 15.226562 0.5625 13.023438 0.351562 10.984375 -0.0625 C 8.953125 -0.488281 7.179688 -1.222656 5.671875 -2.265625 C 4.160156 -3.304688 2.96875 -4.691406 2.09375 -6.421875 C 1.21875 -8.148438 0.78125 -10.289062 0.78125 -12.84375 C 0.78125 -15.15625 1.144531 -17.421875 1.875 -19.640625 C 2.613281 -21.867188 3.84375 -23.84375 5.5625 -25.5625 C 7.289062 -27.289062 9.609375 -28.675781 12.515625 -29.71875 C 15.429688 -30.757812 19.0625 -31.28125 23.40625 -31.28125 C 28.132812 -31.28125 31.691406 -30.546875 34.078125 -29.078125 C 36.472656 -27.617188 37.671875 -25.328125 37.671875 -22.203125 C 37.671875 -20.921875 37.476562 -19.535156 37.09375 -18.046875 C 36.71875 -16.554688 36.148438 -15.296875 35.390625 -14.265625 Z M 24.90625 -22.703125 C 24.90625 -24.171875 24.664062 -25.160156 24.1875 -25.671875 C 23.71875 -26.191406 23.148438 -26.453125 22.484375 -26.453125 C 21.734375 -26.453125 21.035156 -26.203125 20.390625 -25.703125 C 19.753906 -25.210938 19.175781 -24.550781 18.65625 -23.71875 C 18.132812 -22.894531 17.660156 -21.953125 17.234375 -20.890625 C 16.804688 -19.828125 16.453125 -18.703125 16.171875 -17.515625 L 24.265625 -17.515625 C 24.359375 -18.085938 24.453125 -18.679688 24.546875 -19.296875 C 24.640625 -19.816406 24.722656 -20.382812 24.796875 -21 C 24.867188 -21.613281 24.90625 -22.179688 24.90625 -22.703125 Z M 24.90625 -22.703125 "/></g></g><g style="fill:rgb(13.328552%,13.328552%,13.328552%);fill-opacity:1;"><g transform="translate(291.625977, 220.438754)"><path style="stroke:none;" d="M 27.453125 -30.859375 L 38.3125 -45.046875 L 46.8125 -45.046875 L 30 -24.828125 L 40.578125 0 L 23.046875 0 L 17.03125 -14.109375 L 6.09375 0 L -2.40625 0 L 14.328125 -20.5 L 3.90625 -45.046875 L 21.421875 -45.046875 Z M 27.453125 -30.859375 "/></g></g></g></svg>