<svg xmlns="http://www.w3.org/2000/svg" width="658.97" height="175.969" viewBox="0 0 658.97 175.969">
  <g id="SPARKLE_STORIES" data-name="SPARKLE STORIES" transform="translate(0)">
    <path id="Path_127" data-name="Path 127" d="M231.808,183.772c-11.839.125-23.68.041-35.521.041h-.92c-.161-.821-.141-26.261.022-26.905h.925q13.727,0,27.455-.005a7.933,7.933,0,0,1,3.093.626,11.745,11.745,0,0,1,3.808,2.635c.166.167.375.386.58.4.6.054,1.212.02,1.822.02v-14.86H206.094q-2.7,0-5.4,0c-1.791,0-3.584-.006-5.392-.01V121.85h.978q17.464,0,34.929-.005a8.187,8.187,0,0,1,3.505.781,12.452,12.452,0,0,1,3.521,2.54,1.11,1.11,0,0,0,.607.341c.56.047,1.127.016,1.74.016v-14.8H181.012c0,.46.029.875-.006,1.286a1.948,1.948,0,0,0,.546,1.524,11.578,11.578,0,0,1,2.9,7.779q-.05,36.339-.018,72.678v1.052h56.193c0-.885.015-1.72,0-2.553A8.732,8.732,0,0,0,231.808,183.772Z" transform="translate(-61.649 -51.026)" fill="#593561"/>
    <path id="Path_128" data-name="Path 128" d="M148.874,178.981a26.378,26.378,0,0,1-23.1,4.319,27.731,27.731,0,0,1-16.183-11.832,34,34,0,0,1-1.68-34.8,29.706,29.706,0,0,1,12.53-12.515,26.876,26.876,0,0,1,15.919-2.809,26.291,26.291,0,0,1,11.331,4,6.712,6.712,0,0,1,2.177,2.27,10.577,10.577,0,0,1,1.419,5.3,1.215,1.215,0,0,0,.139.692c.466.566.989,1.085,1.529,1.664L163.745,124.8c-.111-.166-.185-.289-.272-.4a35.9,35.9,0,0,0-6.522-6.628c-8.752-6.751-18.7-9.042-29.536-7.688a36.4,36.4,0,0,0-17.894,7.441c-10.521,8.1-16.038,18.924-17.1,32.073a44.656,44.656,0,0,0,13.22,35.053c9.869,9.378,21.6,12.91,35,10.385a36.888,36.888,0,0,0,22.834-14.224c.116-.15.217-.312.338-.487a10.932,10.932,0,0,0-7.628-3.674A11.162,11.162,0,0,0,148.874,178.981Z" transform="translate(-52.319 -50.919)" fill="#593561"/>
    <path id="Path_129" data-name="Path 129" d="M64.364,112.291a1.332,1.332,0,0,0,.464,1.09,22.355,22.355,0,0,1,2.223,2.563,9.09,9.09,0,0,1,1.671,5.412q-.04,32.34-.013,64.682a10.2,10.2,0,0,0,.091,1.7,8.17,8.17,0,0,0,3.98,5.7,11.438,11.438,0,0,0,7.182,1.5c.039,0,.075-.055.129-.095V110.716H64.371C64.371,111.272,64.4,111.784,64.364,112.291Z" transform="translate(-49.383 -51.025)" fill="#593561"/>
    <path id="Path_130" data-name="Path 130" d="M213.852,80.559c-.021,5.079-.011,10.157-.011,15.236v.894h2.953V85.934l.174-.029,3.919,10.8h2.959c.17-1.4.1-18.373-.081-18.914-.454,0-.921,0-1.387,0s-.912.023-1.374.036V88.8l-.143.022q-1.885-5.5-3.765-10.991h-4.234a.715.715,0,0,0,.24.886A2.263,2.263,0,0,1,213.852,80.559Z" transform="translate(-64.993 -47.562)" fill="#593561"/>
    <path id="Path_131" data-name="Path 131" d="M131.5,78.534a2.516,2.516,0,0,1,.83,2.037c-.026,5.076-.012,10.154-.012,15.231v.931c1.034.017,1.976.038,2.983-.014v-7.36a20.439,20.439,0,0,1,2.181.018,1.381,1.381,0,0,1,1.217,1.137,4.273,4.273,0,0,1,.114.948c.013,1.158.016,2.317,0,3.475a1.469,1.469,0,0,0,.673,1.319,2.879,2.879,0,0,0,2.255.424c.013-.161.03-.281.03-.4,0-1.725,0-3.451-.005-5.176a4.853,4.853,0,0,0-.085-.881,3.028,3.028,0,0,0-1.64-2.182c.253-.183.456-.318.646-.47a2.545,2.545,0,0,0,1.061-1.951c.033-1.452.069-2.911-.018-4.36a3.285,3.285,0,0,0-2.492-3.139,7.74,7.74,0,0,0-2.034-.317c-1.823-.043-3.646-.016-5.47-.014-.146,0-.292.022-.434.034C131.256,78.283,131.241,78.3,131.5,78.534Zm3.833,1.612a19.774,19.774,0,0,1,2.226.018,1.437,1.437,0,0,1,1.221,1.472c.053,1.278.058,2.561,0,3.838a1.517,1.517,0,0,1-1.5,1.542,19.044,19.044,0,0,1-1.951.013Z" transform="translate(-56.42 -47.561)" fill="#593561"/>
    <path id="Path_132" data-name="Path 132" d="M262.366,139.857a6.365,6.365,0,0,0,.721-4.453,6.032,6.032,0,0,0-2.4-3.7,6.156,6.156,0,0,0-9.29,7.39,6.021,6.021,0,0,0,3.61,3.394,6.4,6.4,0,0,0,5.029-.368c-.894,3.069-.242,5.212,1.911,6.522a4.959,4.959,0,0,0,6.893-6.662C267.607,139.79,265.461,139.056,262.366,139.857Zm-5.271.845a4.024,4.024,0,1,1,3.985-4.015A4.021,4.021,0,0,1,257.095,140.7Zm7.411,6.522a2.873,2.873,0,0,1-2.825-2.771,2.839,2.839,0,0,1,2.793-2.861,2.8,2.8,0,0,1,2.845,2.79A2.834,2.834,0,0,1,264.506,147.224Z" transform="translate(-69 -53.108)" fill="#593561"/>
    <path id="Path_133" data-name="Path 133" d="M154.743,80.651c-.023,5.054-.011,10.109-.011,15.163V96.7h2.948v-.84c0-1.874.044-3.749-.017-5.621-.036-1.083.634-1.794,1.093-2.824.145.406.234.626.3.852q1.009,3.247,2.013,6.494a2.987,2.987,0,0,0,3.728,1.872c-.081-.254-.157-.511-.243-.765-1.166-3.454-2.323-6.911-3.512-10.357a1.457,1.457,0,0,1,.119-1.312c1.053-1.9,2.074-3.809,3.1-5.721.107-.2.332-.38.183-.67h-3l-3.592,6.644-.178-.047v-6.6c-1.4,0-2.711-.019-4.2.016a3.359,3.359,0,0,0,.423.719A2.611,2.611,0,0,1,154.743,80.651Z" transform="translate(-58.754 -47.563)" fill="#593561"/>
    <path id="Path_134" data-name="Path 134" d="M240.259,96.622a7.284,7.284,0,0,0,3.012-.005,3.623,3.623,0,0,0,3.234-3.8,27.781,27.781,0,0,0,0-2.811,2.5,2.5,0,0,1,.889-2.234.457.457,0,0,0,.153-.637,37.526,37.526,0,0,0-5.738.064v2.089h1.68c0,1.34.04,2.57-.013,3.8a1.485,1.485,0,0,1-1.617,1.476,1.568,1.568,0,0,1-1.832-1.715c0-.123,0-.246,0-.37q0-5.18,0-10.359a5.066,5.066,0,0,1,.035-.738,1.477,1.477,0,0,1,.8-1.171,1.734,1.734,0,0,1,2.642,1.506c0,.074,0,.149,0,.222a1.748,1.748,0,0,0,.932,1.5,2.825,2.825,0,0,0,2.029.348c0-.841.051-1.677-.011-2.5a3.407,3.407,0,0,0-2.65-3.185,7.061,7.061,0,0,0-3.729-.09,3.6,3.6,0,0,0-3.047,3.579c-.02.245-.018.492-.018.739q0,3.07,0,6.141c0,1.406-.01,2.812,0,4.217A3.634,3.634,0,0,0,240.259,96.622Z" transform="translate(-67.54 -47.563)" fill="#593561"/>
    <path id="Path_135" data-name="Path 135" d="M112.014,91.713H115.1c.191,1.138.386,2.229.554,3.324a1.741,1.741,0,0,0,.624,1.137,3.1,3.1,0,0,0,2.553.521c-.57-3.205-1.126-6.334-1.681-9.461s-1.034-6.251-1.613-9.363h-5.269c-.2.458.1.617.294.827a1.724,1.724,0,0,1,.62,1.568c-.875,4.876-1.725,9.756-2.583,14.636-.1.592-.2,1.187-.3,1.809h2.888C111.465,95.025,111.738,93.38,112.014,91.713Zm1.274-9.58.158.013c.408,2.37.816,4.74,1.235,7.17h-2.246C112.723,86.9,113.006,84.514,113.289,82.133Z" transform="translate(-54.003 -47.571)" fill="#593561"/>
    <path id="Path_136" data-name="Path 136" d="M64.266,93.161a3.283,3.283,0,0,0,2.341,3.246,6.492,6.492,0,0,0,4.563.02,3.671,3.671,0,0,0,2.542-3.086,8.176,8.176,0,0,0-.029-2.207,4.839,4.839,0,0,0-1.712-2.943c-1.2-1.1-2.391-2.208-3.6-3.3a3.519,3.519,0,0,1-1.136-3.276A1.724,1.724,0,0,1,69.09,80,1.666,1.666,0,0,1,70.8,81.673a2.1,2.1,0,0,0,.023.441,2.7,2.7,0,0,0,.387.93,2.492,2.492,0,0,0,2.424.763c0-.844.03-1.63-.006-2.414a3.41,3.41,0,0,0-2.445-3.268A6.648,6.648,0,0,0,66.97,78.1a3.377,3.377,0,0,0-2.346,2.281,5.436,5.436,0,0,0,1.152,5.645c.27.286.565.55.855.818,1.087,1,2.189,1.991,3.263,3.008A3.328,3.328,0,0,1,70.87,93.1a1.8,1.8,0,0,1-2.2,1.481,1.673,1.673,0,0,1-1.585-1.864c0-.888.019-1.775.019-2.663a4.421,4.421,0,0,0-.065-.548H63.222c0,.451-.011.459.311.77a2.246,2.246,0,0,1,.745,1.854C64.255,92.47,64.263,92.816,64.266,93.161Z" transform="translate(-49.263 -47.56)" fill="#593561"/>
    <path id="Path_137" data-name="Path 137" d="M96.054,85.192q.023-1.553,0-3.106a7.7,7.7,0,0,0-.117-1.249,3.186,3.186,0,0,0-2.075-2.582,6.111,6.111,0,0,0-1.935-.427c-2.094-.054-4.19-.021-6.285-.019-.043,0-.086.038-.126.057-.148.318.035.5.252.694a2.5,2.5,0,0,1,.841,2.038c-.024,3.279-.01,6.557-.01,9.837,0,1.43.012,2.86,0,4.29a1.646,1.646,0,0,0,.587,1.374,2.713,2.713,0,0,0,2.347.578V89.348c.324,0,.563,0,.8,0,.591-.006,1.185.009,1.774-.028C94.664,89.161,96.018,87.745,96.054,85.192Zm-5.148,1.9c-.415,0-.83,0-1.225,0a44.009,44.009,0,0,1-.1-6.959c.751,0,1.461-.047,2.163.014a1.381,1.381,0,0,1,1.242,1.1,3.818,3.818,0,0,1,.123.946c.015.933.009,1.868,0,2.8a3.593,3.593,0,0,1-.064.658,1.605,1.605,0,0,1-1.548,1.424A5.6,5.6,0,0,1,90.906,87.09Z" transform="translate(-51.601 -47.563)" fill="#593561"/>
    <path id="Path_138" data-name="Path 138" d="M54.449,197.274a11.007,11.007,0,0,0-.173-1.723,3.342,3.342,0,0,0-3.084-2.455,3.4,3.4,0,0,0-2.278,6.059c.2.162.412.319.615.475a6.247,6.247,0,0,0,.259,7.964,6.18,6.18,0,0,0,7.162,1.489,6.106,6.106,0,0,0,3.557-6.182C60.136,199.708,58.19,197.923,54.449,197.274Zm-4.677-.793a1.239,1.239,0,0,1,1.287-1.23,1.258,1.258,0,0,1,1.229,1.225,1.283,1.283,0,0,1-1.259,1.277A1.263,1.263,0,0,1,49.771,196.481Zm4.656,11.014a4.013,4.013,0,0,1-4.064-4,4.016,4.016,0,1,1,8.032-.019A4,4,0,0,1,54.427,207.494Z" transform="translate(-47.623 -59.688)" fill="#593561"/>
    <path id="Path_139" data-name="Path 139" d="M254.034,187.73c.448-1.8-.344-3.2-2.458-4.234a5.007,5.007,0,0,0-.445-4.09,4.726,4.726,0,0,0-3.4-2.372,4.928,4.928,0,0,0-5.763,4.037,4.8,4.8,0,0,0,.815,3.657,5.075,5.075,0,0,0,4.5,2.16c.464,2.22,1.645,3.368,3.434,3.391A3.434,3.434,0,0,0,254.034,187.73Zm-7.155-3a2.821,2.821,0,1,1-.052-5.642,2.821,2.821,0,0,1,.052,5.642Zm3.828,3.4a1.261,1.261,0,1,1,.106-2.52,1.261,1.261,0,0,1-.106,2.52Z" transform="translate(-68.052 -57.991)" fill="#593561"/>
    <path id="Path_140" data-name="Path 140" d="M185.838,94.519H180.41V82.56c0-.789.005-1.578,0-2.368s.033-1.555-.029-2.341h-4.05c.153.308.2.537.337.656a2.688,2.688,0,0,1,.881,2.246c-.026,5.006-.013,10.012-.011,15.019,0,.31.024.619.038.938H185.9A4.564,4.564,0,0,0,185.838,94.519Z" transform="translate(-61.158 -47.569)" fill="#593561"/>
    <path id="Path_141" data-name="Path 141" d="M197.694,78.6a2.447,2.447,0,0,1,.788,1.985c-.038,2-.013,4-.013,5.994,0,2.664.006,5.329,0,7.993a1.815,1.815,0,0,0,.5,1.419,2.545,2.545,0,0,0,2.362.683V77.839H197.5C197.3,78.218,197.482,78.407,197.694,78.6Z" transform="translate(-63.375 -47.568)" fill="#593561"/>
    <path id="Path_142" data-name="Path 142" d="M70.272,216.916a4.955,4.955,0,1,0,.01,9.909,4.955,4.955,0,0,0-.01-9.909Zm-.013,7.794a2.832,2.832,0,0,1-2.818-2.814,2.756,2.756,0,0,1,2.785-2.815,2.822,2.822,0,0,1,2.846,2.783A2.889,2.889,0,0,1,70.259,224.71Z" transform="translate(-49.479 -62.193)" fill="#593561"/>
    <path id="Path_143" data-name="Path 143" d="M270.413,98.406a4.959,4.959,0,1,0,4.966,4.892A4.943,4.943,0,0,0,270.413,98.406Zm-.013,7.762a2.819,2.819,0,0,1,.071-5.637,2.819,2.819,0,1,1-.071,5.637Z" transform="translate(-70.532 -49.73)" fill="#593561"/>
    <path id="Path_144" data-name="Path 144" d="M260.213,122.548a4.963,4.963,0,0,0,.057-9.926,4.963,4.963,0,0,0-.057,9.926Zm0-7.8a2.826,2.826,0,0,1,2.829,2.8,2.792,2.792,0,0,1-2.784,2.832,2.834,2.834,0,0,1-2.849-2.787A2.873,2.873,0,0,1,260.217,114.747Z" transform="translate(-69.462 -51.225)" fill="#593561"/>
    <path id="Path_145" data-name="Path 145" d="M253.784,195.223a5.907,5.907,0,0,0-.4,6.308,5.209,5.209,0,0,0,4.472,3.063,5.517,5.517,0,0,0,4.184-1.55,6.156,6.156,0,0,0,.866-7.671A5.4,5.4,0,0,0,253.784,195.223Zm8.252,5.5a4.143,4.143,0,0,1-4.479,2.4,4.3,4.3,0,0,1-3.418-3.541,4.913,4.913,0,0,1,.332-2.82,4.175,4.175,0,0,1,4.489-2.512,4.319,4.319,0,0,1,3.5,3.884c.013.172,0,.345,0,.517A4.131,4.131,0,0,1,262.036,200.725Z" transform="translate(-69.185 -59.656)" fill="#593561"/>
    <path id="Path_146" data-name="Path 146" d="M255.057,155.053a3.4,3.4,0,1,0-3.392-3.371A3.375,3.375,0,0,0,255.057,155.053Zm-.033-4.634a1.223,1.223,0,0,1,1.273,1.234,1.245,1.245,0,0,1-1.25,1.267,1.288,1.288,0,0,1-1.256-1.206A1.269,1.269,0,0,1,255.024,150.419Z" transform="translate(-69.08 -54.973)" fill="#593561"/>
    <path id="Path_147" data-name="Path 147" d="M68.568,213.789a3.4,3.4,0,1,0-3.361-3.408A3.37,3.37,0,0,0,68.568,213.789Zm.029-4.632a1.231,1.231,0,0,1,1.255,1.256,1.254,1.254,0,0,1-1.288,1.235,1.274,1.274,0,0,1-1.227-1.23A1.251,1.251,0,0,1,68.6,209.157Z" transform="translate(-49.472 -61.149)" fill="#593561"/>
    <path id="Path_148" data-name="Path 148" d="M260.686,199.353a1.772,1.772,0,0,0-.9-2.919,16.633,16.633,0,0,0-3.146-.072c.007,1.788-.021,3.492.019,5.178h1.325c.03-.525.055-.982.079-1.407a.564.564,0,0,1,.807.259c.171.3.381.574.553.872a.611.611,0,0,0,.6.346c.362-.012.724,0,1.233,0l-1.106-1.764C260.362,199.649,260.54,199.516,260.686,199.353Zm-1.468-.535c-.356.056-.721.051-1.142.075v-1.269a9.658,9.658,0,0,1,1.1.009.6.6,0,0,1,.038,1.185Z" transform="translate(-69.603 -60.028)" fill="#593561"/>
    <path id="Path_149" data-name="Path 149" d="M303.842,48.484V219.979a4.474,4.474,0,0,0,4.474-4.474V44.01A4.474,4.474,0,0,0,303.842,48.484Z" transform="translate(-74.567 -44.01)" fill="#593561"/>
    <path id="Path_150" data-name="Path 150" d="M416.719,130.894h9.695a1.24,1.24,0,0,0,1.241-1.24V117.628a1.241,1.241,0,0,1,1.241-1.241h9.357c14.056,0,22.851-7.291,22.851-19.017,0-11.8-8.794-19.092-22.851-19.092H416.719a1.241,1.241,0,0,0-1.241,1.241v50.134A1.24,1.24,0,0,0,416.719,130.894Zm10.936-41.452A1.241,1.241,0,0,1,428.9,88.2h8.681c7.441,0,11.2,3.382,11.2,9.17,0,5.712-3.758,9.1-11.2,9.1H428.9a1.241,1.241,0,0,1-1.241-1.241Z" transform="translate(-86.307 -47.614)" fill="#593561"/>
    <path id="Path_151" data-name="Path 151" d="M465.768,130.894H475.5a1.24,1.24,0,0,0,1.146-.767l4.344-10.508h23.6a1.241,1.241,0,0,1,1.147.768l4.026,9.74a1.239,1.239,0,0,0,1.146.767h10.035a1.241,1.241,0,0,0,1.133-1.748L499.663,79.013a1.24,1.24,0,0,0-1.133-.735H488.114a1.241,1.241,0,0,0-1.134.736l-22.345,50.134A1.24,1.24,0,0,0,465.768,130.894Zm19.846-22.236L492.1,93a1.242,1.242,0,0,1,2.294,0l6.486,15.661a1.24,1.24,0,0,1-1.146,1.715H486.76A1.24,1.24,0,0,1,485.614,108.658Z" transform="translate(-91.465 -47.614)" fill="#593561"/>
    <path id="Path_152" data-name="Path 152" d="M613.05,129.653V118.088a1.239,1.239,0,0,1,.345-.859l5.748-5.994a1.241,1.241,0,0,1,1.858.076l15.579,19.125a1.24,1.24,0,0,0,.962.456h11.052a1.241,1.241,0,0,0,.974-2.011l-20.824-26.318a1.241,1.241,0,0,1,.064-1.615l19.133-20.586a1.241,1.241,0,0,0-.908-2.086H636.885a1.242,1.242,0,0,0-.9.387L615.192,100.6a1.242,1.242,0,0,1-2.142-.855V79.519a1.241,1.241,0,0,0-1.241-1.241h-9.62a1.241,1.241,0,0,0-1.241,1.241v50.134a1.24,1.24,0,0,0,1.241,1.24h9.62A1.24,1.24,0,0,0,613.05,129.653Z" transform="translate(-105.812 -47.614)" fill="#593561"/>
    <path id="Path_153" data-name="Path 153" d="M666.028,130.894h36.077a1.24,1.24,0,0,0,1.241-1.24v-8.681H676.964V79.519a1.241,1.241,0,0,0-1.241-1.241h-9.695a1.241,1.241,0,0,0-1.242,1.241v50.134A1.241,1.241,0,0,0,666.028,130.894Z" transform="translate(-112.525 -47.614)" fill="#593561"/>
    <path id="Path_154" data-name="Path 154" d="M455.533,157.759v-7.44a1.241,1.241,0,0,0-1.241-1.241H410.923a1.241,1.241,0,0,0-1.241,1.241v7.44A1.241,1.241,0,0,0,410.923,159h14.355a1.241,1.241,0,0,1,1.241,1.241v40.212a1.241,1.241,0,0,0,1.241,1.241h9.695a1.241,1.241,0,0,0,1.241-1.241V160.241A1.241,1.241,0,0,1,439.937,159h14.355A1.241,1.241,0,0,0,455.533,157.759Z" transform="translate(-85.697 -55.059)" fill="#593561"/>
    <rect id="Rectangle_40" data-name="Rectangle 40" width="12.177" height="52.616" rx="1.387" transform="translate(498.82 94.019)" fill="#593561"/>
    <path id="Path_155" data-name="Path 155" d="M673.8,191.923H647.64a1.241,1.241,0,0,1-1.241-1.241v-9.7a1.241,1.241,0,0,1,1.241-1.241h21.947a1.24,1.24,0,0,0,1.24-1.24v-6.99a1.24,1.24,0,0,0-1.24-1.241H647.64a1.241,1.241,0,0,1-1.241-1.24v-8.943a1.241,1.241,0,0,1,1.241-1.241h25.179a1.241,1.241,0,0,0,1.241-1.241v-7.289a1.241,1.241,0,0,0-1.241-1.241H635.537a1.241,1.241,0,0,0-1.241,1.241v50.134a1.241,1.241,0,0,0,1.241,1.241H673.8a1.241,1.241,0,0,0,1.241-1.241v-7.289A1.241,1.241,0,0,0,673.8,191.923Z" transform="translate(-109.318 -55.059)" fill="#593561"/>
    <path id="Path_156" data-name="Path 156" d="M370.457,93.055c0-3.307,2.782-6.013,10-6.013a29.214,29.214,0,0,1,13.363,3.471,1.248,1.248,0,0,0,1.742-.623l2.835-6.973a1.228,1.228,0,0,0-.513-1.533c-4.8-2.722-11.14-4.114-17.352-4.114-6.88,0-12.1,1.587-15.758,4.158a11.346,11.346,0,0,0,3.247,2.662,3.58,3.58,0,0,1,0,6.281,11.307,11.307,0,0,0-5.461,6.786l-1.232,4.208a3.509,3.509,0,0,1-.261.635c7.475,9.271,27.884,6.235,27.884,14.28,0,3.231-2.931,5.637-10.148,5.637a31.346,31.346,0,0,1-16.181-4.681,1.232,1.232,0,0,0-1.787.537l-3.113,6.9a1.251,1.251,0,0,0,.445,1.548c4.789,3.266,12.709,5.463,20.562,5.463,15.033,0,22.325-7.517,22.325-16.31C401.051,96.062,370.457,102.751,370.457,93.055Z" transform="translate(-80.222 -47.508)" fill="#593561"/>
    <path id="Path_157" data-name="Path 157" d="M370.545,163.855c0-3.307,2.782-6.013,10-6.013a29.16,29.16,0,0,1,13.234,3.4,1.413,1.413,0,0,0,1.945-.737l2.761-6.793a1.229,1.229,0,0,0-.513-1.534c-4.8-2.722-11.14-4.114-17.352-4.114-14.958,0-22.173,7.441-22.173,16.386,0,19.543,30.592,12.778,30.592,22.625,0,3.232-2.931,5.637-10.147,5.637a31.339,31.339,0,0,1-16.181-4.682,1.216,1.216,0,0,0-.585-.185l.022.074a12.333,12.333,0,0,0,5.96,7.407,3.574,3.574,0,0,1,.487,5.954,44.941,44.941,0,0,0,6.337,1.009c.045-.122.09-.242.127-.367l.774-2.644a3.58,3.58,0,0,1,6.871,0l.774,2.644c.028.093.063.182.095.273,11.808-1.427,17.57-8.215,17.57-16.022C401.138,166.862,370.545,173.551,370.545,163.855Z" transform="translate(-80.309 -54.953)" fill="#593561"/>
    <path id="Path_158" data-name="Path 158" d="M753.573,185.638l1.021,3.489,1.022-3.489a12.4,12.4,0,0,1,5.953-7.4h0a12.406,12.406,0,0,1-5.953-7.4l-1.022-3.49-1.021,3.49a12.406,12.406,0,0,1-5.953,7.4h0A12.4,12.4,0,0,1,753.573,185.638Z" transform="translate(-121.236 -56.981)" fill="#593561"/>
    <path id="Path_159" data-name="Path 159" d="M765.537,79.067l-1.27-4.34L763,79.067a15.428,15.428,0,0,1-7.4,9.2,15.428,15.428,0,0,1,7.4,9.2l1.271,4.339,1.27-4.339a15.427,15.427,0,0,1,7.4-9.2A15.427,15.427,0,0,1,765.537,79.067Z" transform="translate(-122.074 -47.24)" fill="#593561"/>
    <path id="Path_160" data-name="Path 160" d="M337.823,76.7a8.626,8.626,0,0,1,4.14-5.145,8.626,8.626,0,0,1-4.14-5.145l-.711-2.428L336.4,66.4a8.629,8.629,0,0,1-4.14,5.145A8.629,8.629,0,0,1,336.4,76.7l.711,2.428Z" transform="translate(-77.556 -46.11)" fill="#593561"/>
    <path id="Path_161" data-name="Path 161" d="M347.385,108.1a8.627,8.627,0,0,1-4.14-5.145l-.711-2.428-.711,2.428a8.624,8.624,0,0,1-4.14,5.145h0a8.626,8.626,0,0,1,4.14,5.145l.711,2.428.711-2.428a8.629,8.629,0,0,1,4.14-5.145Z" transform="translate(-78.126 -49.953)" fill="#593561"/>
    <path id="Path_162" data-name="Path 162" d="M381.865,209.071l-.775-2.644-.774,2.644a9.4,9.4,0,0,1-4.51,5.6,9.4,9.4,0,0,1,4.51,5.605l.774,2.643.775-2.643a9.393,9.393,0,0,1,4.51-5.605A9.394,9.394,0,0,1,381.865,209.071Z" transform="translate(-82.135 -61.09)" fill="#593561"/>
    <path id="Path_163" data-name="Path 163" d="M357.528,193.205l-1.318-4.5-1.318,4.5a16,16,0,0,1-7.677,9.542,16,16,0,0,1,7.677,9.541l1.318,4.5,1.318-4.5a16,16,0,0,1,7.677-9.541A16,16,0,0,1,357.528,193.205Z" transform="translate(-79.128 -59.226)" fill="#593561"/>
    <path id="Path_164" data-name="Path 164" d="M776.96,55.961l-.952-3.253-.952,3.253a11.559,11.559,0,0,1-5.548,6.895,11.559,11.559,0,0,1,5.548,6.895L776.008,73l.952-3.253a11.563,11.563,0,0,1,5.548-6.895A11.563,11.563,0,0,1,776.96,55.961Z" transform="translate(-123.538 -44.925)" fill="#593561"/>
    <path id="Path_165" data-name="Path 165" d="M355.7,95.78l1.232,4.208,1.232-4.208a14.957,14.957,0,0,1,7.178-8.921,14.957,14.957,0,0,1-7.178-8.921l-1.232-4.208L355.7,77.938a14.961,14.961,0,0,1-7.178,8.921A14.961,14.961,0,0,1,355.7,95.78Z" transform="translate(-79.266 -47.135)" fill="#593561"/>
    <path id="Path_166" data-name="Path 166" d="M736.15,189.527l-1.232-4.208-1.232,4.208a14.96,14.96,0,0,1-7.178,8.921,14.955,14.955,0,0,1,7.178,8.921l1.232,4.208,1.232-4.208a14.957,14.957,0,0,1,7.178-8.921A14.962,14.962,0,0,1,736.15,189.527Z" transform="translate(-119.016 -58.87)" fill="#593561"/>
    <path id="Path_167" data-name="Path 167" d="M758.625,207.6l-1.232-4.208L756.16,207.6a14.954,14.954,0,0,1-7.178,8.921,14.959,14.959,0,0,1,7.178,8.921l1.232,4.208,1.232-4.208a14.963,14.963,0,0,1,7.179-8.921A14.958,14.958,0,0,1,758.625,207.6Z" transform="translate(-121.379 -60.772)" fill="#593561"/>
    <path id="Path_168" data-name="Path 168" d="M718.884,194.531a3.58,3.58,0,0,1,1.862-3.141,11.3,11.3,0,0,0,5.46-6.786l1.232-4.208a3.57,3.57,0,0,1,1.642-2.082c-7.218-9.621-28.172-6.431-28.172-14.459,0-3.307,2.782-6.013,10-6.013a29.212,29.212,0,0,1,13.363,3.471,1.248,1.248,0,0,0,1.742-.623l2.835-6.973a1.229,1.229,0,0,0-.513-1.534c-4.8-2.722-11.14-4.114-17.352-4.114-14.958,0-22.173,7.441-22.173,16.386,0,19.543,30.592,12.778,30.592,22.625,0,3.232-2.931,5.637-10.147,5.637a31.334,31.334,0,0,1-16.181-4.682,1.233,1.233,0,0,0-1.788.538l-3.113,6.9a1.249,1.249,0,0,0,.445,1.547c4.789,3.267,12.709,5.464,20.562,5.464,5.822,0,10.469-1.137,14-3.03a11.408,11.408,0,0,0-2.427-1.79A3.58,3.58,0,0,1,718.884,194.531Z" transform="translate(-114.972 -54.953)" fill="#593561"/>
    <path id="Path_169" data-name="Path 169" d="M718.443,130.894H756.7a1.241,1.241,0,0,0,1.241-1.24v-7.289a1.241,1.241,0,0,0-1.241-1.241H730.545a1.241,1.241,0,0,1-1.241-1.241v-9.695a1.241,1.241,0,0,1,1.241-1.241h21.947a1.241,1.241,0,0,0,1.241-1.241v-6.989a1.241,1.241,0,0,0-1.241-1.241H730.545a1.241,1.241,0,0,1-1.241-1.241V89.291a1.241,1.241,0,0,1,1.241-1.241h17.487a3.577,3.577,0,0,1,1.807-2.551,11.769,11.769,0,0,0,5.685-7.064l.046-.157H718.443a1.241,1.241,0,0,0-1.241,1.241v50.134A1.24,1.24,0,0,0,718.443,130.894Z" transform="translate(-118.037 -47.614)" fill="#593561"/>
    <path id="Path_170" data-name="Path 170" d="M539.73,130.553h9.7a1.241,1.241,0,0,0,1.241-1.24V117.137a1.241,1.241,0,0,1,1.241-1.241h9.958l9.777,14.122a1.242,1.242,0,0,0,1.021.534h10.049a1.241,1.241,0,0,0,1.018-1.951l-9.6-13.758a1.234,1.234,0,0,1,.446-1.8c6.05-3.084,9.537-8.626,9.537-16.01,0-11.8-8.794-19.092-22.851-19.092H539.73a1.241,1.241,0,0,0-1.241,1.241v50.134A1.24,1.24,0,0,0,539.73,130.553ZM550.667,89.1a1.241,1.241,0,0,1,1.241-1.241h8.68c7.441,0,11.2,3.383,11.2,9.17,0,5.712-3.758,9.17-11.2,9.17h-8.68a1.241,1.241,0,0,1-1.241-1.241Z" transform="translate(-99.243 -47.578)" fill="#593561"/>
    <path id="Path_171" data-name="Path 171" d="M495.126,147.729c-16.613,0-28.789,11.576-28.789,27.21s12.176,27.21,28.789,27.21c16.536,0,28.789-11.5,28.789-27.21S511.661,147.729,495.126,147.729Zm0,44.047c-9.4,0-16.462-6.84-16.462-16.837S485.73,158.1,495.126,158.1s16.46,6.84,16.46,16.837S504.521,191.776,495.126,191.776Z" transform="translate(-91.655 -54.917)" fill="#593561"/>
    <path id="Path_172" data-name="Path 172" d="M578.7,183.839c6.051-3.084,9.538-8.625,9.538-16.01,0-11.8-8.794-19.092-22.851-19.092H543.848a1.241,1.241,0,0,0-1.241,1.241v51.375h10.937a1.241,1.241,0,0,0,1.241-1.241V187.937a1.241,1.241,0,0,1,1.241-1.241h9.958l9.778,14.122a1.239,1.239,0,0,0,1.02.535h10.049a1.241,1.241,0,0,0,1.018-1.952l-9.6-13.758A1.233,1.233,0,0,1,578.7,183.839ZM564.707,177h-8.681a1.241,1.241,0,0,1-1.241-1.241V159.9a1.241,1.241,0,0,1,1.241-1.241h8.681c7.441,0,11.2,3.383,11.2,9.17C575.906,173.542,572.147,177,564.707,177Z" transform="translate(-99.676 -55.023)" fill="#593561"/>
  </g>
</svg>
